<svg width="29" height="27" viewBox="0 0 29 27" fill="none" xmlns="http://www.w3.org/2000/svg">
<g id="instagram">
<path id="Vector" d="M12.375 8.84297C8.86412 8.84297 6.03224 11.5482 6.03224 14.9021C6.03224 18.2561 8.86412 20.9613 12.375 20.9613C15.8859 20.9613 18.7177 18.2561 18.7177 14.9021C18.7177 11.5482 15.8859 8.84297 12.375 8.84297ZM12.375 18.8414C10.1062 18.8414 8.25137 17.0748 8.25137 14.9021C8.25137 12.7295 10.1006 10.9629 12.375 10.9629C14.6493 10.9629 16.4986 12.7295 16.4986 14.9021C16.4986 17.0748 14.6438 18.8414 12.375 18.8414ZM20.4566 8.59512C20.4566 9.38086 19.7942 10.0084 18.9772 10.0084C18.1547 10.0084 17.4978 9.37559 17.4978 8.59512C17.4978 7.81465 18.1602 7.18184 18.9772 7.18184C19.7942 7.18184 20.4566 7.81465 20.4566 8.59512ZM24.6575 10.0295C24.5637 8.13633 24.111 6.45938 22.6592 5.07773C21.2129 3.69609 19.4574 3.26367 17.4757 3.16875C15.4332 3.05801 9.31126 3.05801 7.26877 3.16875C5.29252 3.2584 3.53709 3.69082 2.08527 5.07246C0.633447 6.4541 0.186308 8.13105 0.0869437 10.0242C-0.0289812 11.9754 -0.0289812 17.8236 0.0869437 19.7748C0.180788 21.668 0.633447 23.3449 2.08527 24.7266C3.53709 26.1082 5.287 26.5406 7.26877 26.6355C9.31126 26.7463 15.4332 26.7463 17.4757 26.6355C19.4574 26.5459 21.2129 26.1135 22.6592 24.7266C24.1055 23.3449 24.5581 21.668 24.6575 19.7748C24.7734 17.8236 24.7734 11.9807 24.6575 10.0295ZM22.0188 21.8684C21.5883 22.902 20.7547 23.6982 19.6672 24.1148C18.0387 24.7318 14.1746 24.5895 12.375 24.5895C10.5754 24.5895 6.7057 24.7266 5.08276 24.1148C4.00079 23.7035 3.16723 22.9072 2.73114 21.8684C2.08527 20.3127 2.23431 16.6213 2.23431 14.9021C2.23431 13.183 2.09079 9.48633 2.73114 7.93594C3.16171 6.90234 3.99527 6.10605 5.08276 5.68945C6.71122 5.07246 10.5754 5.21484 12.375 5.21484C14.1746 5.21484 18.0443 5.07773 19.6672 5.68945C20.7492 6.10078 21.5827 6.89707 22.0188 7.93594C22.6647 9.4916 22.5157 13.183 22.5157 14.9021C22.5157 16.6213 22.6647 20.318 22.0188 21.8684Z" fill="white" fill-opacity="0.6"/>
</g>
</svg>
