<svg width="29" height="27" viewBox="0 0 29 27" fill="none" xmlns="http://www.w3.org/2000/svg">
<path id="Vector" d="M25.3584 6.72888C25.3763 7.02418 25.3763 7.31954 25.3763 7.61484C25.3763 16.6218 19.5479 27 8.89517 27C5.61327 27 2.56455 25.882 0 23.9414C0.466296 24.0047 0.914596 24.0258 1.39883 24.0258C4.10679 24.0258 6.59963 22.95 8.59029 21.1149C6.04369 21.0516 3.90956 19.0899 3.17426 16.3898C3.53296 16.4531 3.89161 16.4953 4.26826 16.4953C4.78832 16.4953 5.30844 16.4109 5.79262 16.2633C3.13843 15.6304 1.14772 12.8883 1.14772 9.57655V9.49221C1.91884 9.99846 2.81561 10.3149 3.76603 10.357C2.20578 9.13354 1.1836 7.04528 1.1836 4.68277C1.1836 3.41716 1.47049 2.25701 1.97266 1.2445C4.82415 5.37887 9.11035 8.07883 13.9166 8.37419C13.8269 7.86794 13.7731 7.34065 13.7731 6.81329C13.7731 3.05856 16.3556 0 19.5657 0C21.2336 0 22.74 0.822654 23.7981 2.15156C25.1072 1.85626 26.3626 1.2867 27.4745 0.506254C27.0441 2.08832 26.1295 3.41723 24.9279 4.26092C26.0936 4.11334 27.2235 3.73356 28.2636 3.20627C27.4746 4.55622 26.4882 5.75851 25.3584 6.72888Z" fill="white" fill-opacity="0.6"/>
</svg>
